<?xml version="1.0" encoding="utf-8"?>
<svg viewBox="555.75 209.059 120.209 121.952" xmlns="http://www.w3.org/2000/svg">
  <g id="freepik--washing-machine-2--inject-2">
    <rect x="328.6" y="122.15" width="49.47" height="298.68" style="fill:#92E3A9;stroke:#263238;stroke-miterlimit:10"/>
    <rect x="270.92" y="145.36" width="164.82" height="199.2" style="fill:none;stroke:#263238;stroke-miterlimit:10"/>
    <rect x="270.92" y="122.15" width="164.82" height="199.2" style="fill:none;stroke:#263238;stroke-miterlimit:10"/>
    <rect x="406.32" y="194.65" width="29.42" height="16.2" style="fill:#fff;stroke:#263238;stroke-miterlimit:10"/>
    <rect x="406.32" y="265.43" width="29.42" height="16.2" style="fill:#fff;stroke:#263238;stroke-miterlimit:10"/>
    <circle cx="353.33" cy="238.95" r="73.9" style="fill:#fff;stroke:#263238;stroke-miterlimit:10"/>
    <circle cx="353.33" cy="238.95" r="71.47" transform="translate(-65.48 319.83) rotate(-45)" style="fill:#92E3A9;stroke:#263238;stroke-miterlimit:10"/>
    <path d="M412.74,239a59.45,59.45,0,1,1-17.91-42.49h0A59.22,59.22,0,0,1,412.74,239Z" style="fill:#263238;stroke:#263238;stroke-miterlimit:10"/>
    <path d="M327.26,239.58c5-15.6,3.44-9.8,3.44-9.8" style="fill:none;stroke:#263238;stroke-miterlimit:10"/>
    <path d="M316.17,252s7.26-39.33,9-28.64-11.54,39.76-9.83,44.46,5-6.37,10.75-24.49" style="fill:none;stroke:#263238;stroke-miterlimit:10"/>
    <path d="M406,260.11a38.29,38.29,0,0,0,2.12-9" style="fill:none;stroke:#263238;stroke-miterlimit:10"/>
    <path d="M370.89,248.09a38.11,38.11,0,0,0-13.68,4.78c-13.74,8.64-14.14,21.6-1.2,32.6" style="fill:none;stroke:#263238;stroke-miterlimit:10"/>
    <path d="M338.4,275.53s.42-1.16,1.19-3.11" style="fill:none;stroke:#263238;stroke-miterlimit:10"/>
    <path d="M329.29,262c-5.73,10.07-10.37,15.2-17,15.2" style="fill:none;stroke:#263238;stroke-miterlimit:10"/>
    <path d="M347.38,227.25q-1.83,3.3-3.85,7.23c-4.59,8.92-8.29,16.47-11.55,22.63" style="fill:none;stroke:#263238;stroke-miterlimit:10"/>
    <path d="M397.57,219.16c-3-4.51-10.32-13.64-20.26-14.61-11.42-1.1-17.45,1-28.2,19.62" style="fill:none;stroke:#263238;stroke-miterlimit:10"/>
    <path d="M399.12,221.66s-.3-.56-.88-1.47" style="fill:none;stroke:#263238;stroke-miterlimit:10"/>
    <path d="M390.56,256.72s-3.56,1.85-8,4.36c-6.21,3.51-14.12,8.29-16.37,11-3.85,4.7,3.85,9.41,7.27,5.56s9.84-11.12,9.84-11.12" style="fill:none;stroke:#263238;stroke-miterlimit:10"/>
    <path d="M295.81,261.38a7.51,7.51,0,0,1-7.26-5.62,67.32,67.32,0,0,1,1.19-37.68A7.5,7.5,0,0,1,304,222.76a52.1,52.1,0,0,0-.92,29.24,7.51,7.51,0,0,1-5.39,9.14A7.63,7.63,0,0,1,295.81,261.38Z" style="fill:#bdbdbd;stroke:#263238;stroke-miterlimit:10"/>
    <circle cx="368.17" cy="152.47" r="4.52" style="fill:#263238;stroke:#263238;stroke-miterlimit:10"/>
    <circle cx="422.43" cy="133.88" r="4.52" style="fill:#92E3A9;stroke:#263238;stroke-miterlimit:10"/>
    <rect x="333.84" y="148.51" width="26.15" height="8.29" style="fill:#fff;stroke:#263238;stroke-miterlimit:10"/>
    <line x1="411.03" y1="122.32" x2="411.03" y2="145.53" style="fill:none;stroke:#263238;stroke-miterlimit:10"/>
    <path d="M 672.506 261.797 C 672.473 307.539 622.937 336.092 583.339 313.194 C 582.564 312.745 581.8 312.28 581.046 311.797 L 581.046 311.597 C 575.916 309.037 567.356 297.497 562.656 288.517 C 557.956 279.537 564.796 252.167 574.656 242.337 C 584.516 232.507 585.346 227.797 591.326 230.337 C 597.306 232.877 592.196 246.167 592.196 246.167 C 595.344 241.793 598.207 237.22 600.766 232.477 C 603.766 226.477 613.156 223.927 619.576 220.077 C 625.996 216.227 633.256 213.667 637.966 213.667 C 641.966 213.667 651.676 217.927 654.626 219.257 C 666.092 230.436 672.543 245.783 672.506 261.797 Z" style="fill:#fff;stroke:#263238;stroke-miterlimit:10"/>
  </g>
</svg>