<svg xmlns="http://www.w3.org/2000/svg" version="1.0" viewBox="0 0 920.000000 225.000000" preserveAspectRatio="xMidYMid meet">
<g transform="translate(0.000000,265.000000) scale(0.100000,-0.100000)" fill="#7ac94c" stroke="none">
<path d="M2300 2640 c-390 -27 -806 -176 -1075 -385 -165 -128 -334 -332 -400 -480 -48 -109 -65 -190 -65 -310 0 -137 18 -213 77 -335 l46 -95 27 85 c104 332 390 629 728 757 36 13 66 22 69 20 2 -2 -13 -17 -34 -32 -59 -45 -198 -182 -273 -270 -182 -215 -280 -420 -283 -591 -1 -73 3 -89 31 -146 48 -98 83 -121 235 -152 240 -50 485 36 649 227 193 224 329 553 409 984 33 181 43 215 94 311 69 132 195 273 308 349 l48 31 -53 11 c-63 14 -288 31 -373 29 -33 0 -107 -4 -165 -8z" fill="#7ac94c"/>
</g>
<g transform="translate(0.000000,295.000000) scale(0.100000,-0.100000)" fill="#7ac94c" stroke="none">
<path d="M3219 2244 c-15 -3 -37 -16 -50 -30 l-24 -26 -3 -341 c-4 -390 -1 -439 33 -473 24 -24 28 -24 215 -24 l192 0 29 29 c36 37 38 79 5 118 -24 28 -26 28 -150 31 l-126 4 0 87 0 88 83 7 c93 7 130 27 135 71 9 77 -31 105 -148 105 l-70 0 0 84 0 84 113 4 c121 5 158 16 176 55 22 49 9 87 -38 112 -24 13 -318 24 -372 15z" fill="#7ac94c"/>
<path d="M5552 2217 c-13 -14 -22 -36 -22 -55 0 -33 161 -694 182 -746 31 -78 189 -90 227 -17 6 10 29 96 51 192 51 216 49 211 62 207 6 -2 30 -85 54 -184 46 -194 63 -236 100 -253 65 -29 160 -1 182 55 23 60 182 708 182 743 0 54 -34 83 -90 79 -68 -5 -76 -23 -141 -318 -31 -144 -60 -264 -63 -268 -15 -14 -27 27 -75 258 -28 135 -58 259 -67 276 -28 56 -104 72 -141 32 -33 -37 -38 -52 -94 -315 -33 -155 -59 -253 -66 -253 -11 0 -20 32 -91 363 -45 205 -57 227 -127 227 -30 0 -47 -6 -63 -23z" fill="#7ac94c"/>
<path d="M7942 2233 c-7 -3 -19 -18 -27 -33 -12 -24 -15 -93 -15 -405 0 -267 3 -383 12 -398 18 -34 40 -46 84 -47 31 0 46 6 65 26 22 24 24 34 31 192 7 189 19 240 61 260 24 12 31 11 53 -2 24 -16 24 -17 24 -189 0 -180 9 -236 41 -268 28 -28 90 -26 126 5 l28 24 3 200 c3 212 -2 255 -41 313 -27 41 -98 79 -147 79 -48 0 -100 -28 -127 -69 l-23 -34 0 142 c0 187 -12 212 -98 210 -20 0 -43 -3 -50 -6z" fill="#7ac94c"/>
<path d="M4585 1989 c-128 -13 -180 -61 -180 -166 0 -58 2 -64 38 -101 21 -21 75 -59 120 -84 108 -61 139 -97 117 -139 -8 -14 -21 -19 -54 -19 -47 0 -61 10 -71 53 -10 40 -47 61 -93 54 -46 -8 -62 -29 -62 -82 0 -57 33 -104 95 -135 42 -20 64 -24 136 -24 111 1 189 34 218 92 61 123 19 210 -143 293 -98 51 -116 65 -116 96 0 29 37 48 75 39 19 -5 31 -18 42 -45 18 -45 49 -63 95 -54 69 13 87 66 48 142 -32 64 -130 94 -265 80z" fill="#7ac94c"/>
<path d="M7480 1989 c-108 -9 -168 -54 -184 -138 -15 -82 31 -145 155 -211 110 -58 153 -112 117 -148 -7 -7 -30 -12 -53 -12 -46 0 -65 13 -65 46 0 29 -44 64 -80 64 -75 0 -102 -76 -55 -156 37 -63 96 -88 206 -88 126 1 196 34 230 108 51 113 4 198 -152 276 -83 42 -119 70 -119 94 0 23 29 46 59 46 30 0 50 -18 69 -63 20 -47 90 -57 135 -19 23 21 22 88 -3 129 -36 60 -124 84 -260 72z" fill="#7ac94c"/>
<path d="M3867 1976 c-49 -18 -63 -30 -95 -85 -26 -44 -27 -54 -30 -198 -5 -188 8 -243 67 -296 28 -25 53 -38 85 -42 73 -11 111 0 151 47 30 36 35 39 35 19 0 -38 43 -71 93 -71 52 0 83 25 92 72 3 18 5 143 3 276 l-3 244 -28 24 c-40 34 -90 32 -128 -5 -16 -16 -29 -39 -29 -52 0 -19 -3 -18 -23 12 -41 62 -112 83 -190 55z m154 -146 c38 -21 53 -69 52 -165 0 -95 -16 -146 -48 -159 -32 -12 -64 -6 -75 13 -5 11 -10 80 -10 155 0 128 1 136 22 150 26 19 33 19 59 6z" fill="#7ac94c"/>
<path d="M4995 1978 c-74 -40 -65 -94 73 -443 l60 -150 -34 -66 c-34 -69 -46 -79 -94 -79 -16 0 -36 -7 -44 -16 -22 -22 -20 -80 3 -103 23 -23 95 -36 140 -26 48 10 115 84 161 176 42 82 209 511 230 588 27 102 -66 170 -140 104 -25 -23 -39 -55 -76 -178 -25 -82 -47 -151 -49 -153 -2 -2 -25 65 -51 148 -53 167 -80 210 -131 210 -15 0 -37 -6 -48 -12z" fill="#7ac94c"/>
<path d="M6770 1978 c-47 -13 -96 -62 -117 -117 -14 -37 -18 -76 -18 -196 0 -200 21 -256 109 -296 80 -36 165 -19 203 41 l19 30 12 -33 c22 -60 112 -78 157 -32 l25 24 0 266 0 267 -29 29 c-52 52 -119 37 -152 -34 -10 -23 -19 -35 -19 -26 0 20 -47 65 -83 78 -33 13 -60 13 -107 -1z m160 -166 c34 -34 45 -94 36 -191 -7 -78 -29 -115 -74 -119 -52 -5 -62 22 -62 170 0 115 2 130 20 148 27 27 46 25 80 -8z" fill="#7ac94c"/>
</g>
</svg>