<svg xmlns="http://www.w3.org/2000/svg" version="1.0" viewBox="0 0 600.000000 400.000000" preserveAspectRatio="xMidYMid meet" transform="matrix(1, 0, 0, 1, 0, 0)">

<g transform="translate(-40.000000,700.000000) scale(0.100000,-0.100000)" fill="#7ac94c" stroke="none">
<path d="M4155 6295 c-200 -24 -535 -96 -535 -115 0 -4 -28 -15 -62 -25 -104 -28 -268 -93 -268 -105 0 -4 -15 -13 -32 -20 -48 -18 -232 -112 -239 -122 -3 -4 -37 -29 -75 -54 -61 -40 -171 -133 -229 -194 -11 -12 -49 -52 -85 -90 -63 -65 -161 -197 -173 -232 -4 -10 -11 -18 -16 -18 -15 0 -96 -177 -122 -265 -12 -44 -28 -83 -33 -87 -16 -10 -15 -376 1 -386 6 -4 15 -25 19 -47 19 -102 115 -320 138 -312 6 2 12 14 14 28 10 73 110 335 136 354 7 6 22 28 34 51 11 23 37 62 56 88 20 25 36 50 36 54 0 4 21 27 46 52 26 25 62 64 82 88 20 24 54 56 76 72 23 15 57 44 76 63 19 19 73 58 120 87 47 29 87 56 90 59 13 17 277 121 306 121 3 0 -27 -26 -67 -57 -41 -31 -77 -61 -80 -66 -4 -5 -63 -68 -133 -141 -69 -72 -137 -143 -150 -158 -41 -46 -86 -106 -86 -112 0 -8 -80 -128 -90 -136 -23 -17 -121 -238 -135 -305 -4 -16 -10 -32 -15 -35 -17 -10 -29 -164 -19 -235 5 -38 13 -72 18 -75 5 -3 12 -16 16 -30 12 -39 49 -92 91 -130 104 -96 434 -130 643 -67 46 13 86 29 90 33 3 5 33 22 66 38 60 29 118 69 166 116 83 79 129 126 129 132 0 5 17 25 38 47 20 21 44 51 52 67 8 16 32 57 53 91 20 35 37 67 37 71 0 5 9 19 19 31 21 24 86 175 122 281 12 36 25 67 28 70 21 17 99 321 132 514 13 72 26 133 29 136 4 3 12 37 18 75 18 110 88 300 125 336 7 8 34 46 60 84 25 39 57 81 71 94 14 14 26 29 26 35 0 6 19 25 41 41 23 17 55 46 73 65 17 19 61 54 96 77 72 47 75 44 -55 64 -114 18 -630 20 -770 4z" fill="#7ac94c"/>
<path d="M310 3422 c0 -4 -13 -13 -28 -20 -16 -7 -34 -24 -40 -38 -16 -34 -17 -1007 -1 -1052 19 -56 62 -64 320 -60 258 4 277 8 298 77 19 67 -7 131 -61 150 -17 6 -96 11 -174 11 l-144 0 0 125 0 125 94 0 c151 0 196 25 196 109 0 26 -7 56 -15 68 -19 28 -86 43 -189 43 l-86 0 0 114 0 114 153 4 c121 3 159 7 184 21 66 36 65 153 -2 187 -17 8 -31 18 -33 23 -5 9 -472 9 -472 -1z" fill="#7ac94c"/>
<path d="M3400 3420 c0 -5 -6 -10 -14 -10 -22 0 -66 -59 -66 -88 0 -33 51 -255 60 -262 4 -3 37 -138 74 -300 38 -162 72 -297 76 -300 4 -3 10 -25 14 -50 16 -101 78 -160 169 -160 54 0 116 24 125 49 3 9 12 21 19 26 16 12 25 48 84 318 36 166 45 197 60 197 22 0 22 -2 84 -282 25 -114 50 -217 56 -230 29 -65 156 -99 229 -61 38 20 75 77 85 132 4 20 10 38 14 41 4 3 22 70 40 150 56 246 105 445 112 450 11 9 59 234 59 276 0 47 -30 94 -61 94 -10 0 -19 5 -19 10 0 15 -60 12 -76 -4 -7 -8 -24 -23 -37 -33 -13 -10 -28 -27 -34 -38 -6 -11 -39 -162 -74 -335 -34 -173 -66 -317 -70 -320 -4 -3 -8 -14 -10 -24 -5 -26 -26 -32 -33 -9 -2 10 -26 126 -52 258 -26 132 -51 242 -54 245 -4 3 -13 37 -20 75 -16 94 -44 151 -81 167 -16 7 -29 16 -29 20 0 5 -11 8 -25 8 -14 0 -25 -4 -25 -9 0 -5 -11 -12 -25 -15 -37 -9 -72 -71 -85 -148 -7 -38 -16 -68 -20 -68 -4 0 -10 -15 -12 -32 -11 -83 -101 -504 -110 -513 -11 -12 -28 12 -28 42 0 12 -4 23 -8 25 -5 2 -34 134 -66 293 -31 160 -64 308 -72 330 -8 23 -27 49 -44 60 -16 11 -30 23 -30 28 0 4 -18 7 -40 7 -22 0 -40 -4 -40 -10z" fill="#7ac94c"/>
<path d="M6443 3396 c-17 -19 -35 -49 -38 -68 -3 -18 -5 -249 -3 -513 3 -430 5 -483 20 -511 21 -39 66 -58 119 -51 52 7 88 40 95 89 4 21 10 38 15 38 5 0 9 78 9 173 0 179 12 260 46 312 13 20 25 25 61 25 68 0 73 -20 73 -293 0 -266 9 -309 68 -334 46 -19 107 -12 137 17 36 34 45 100 45 329 0 231 -9 305 -47 371 -31 53 -51 69 -118 92 -102 37 -200 9 -242 -67 l-23 -40 0 173 c0 108 -4 172 -10 172 -5 0 -10 8 -10 18 0 26 -38 82 -55 82 -8 0 -15 5 -15 10 0 6 -21 10 -47 10 -41 0 -52 -5 -80 -34z" fill="#7ac94c"/>
<path d="M2105 3094 c-119 -12 -187 -47 -216 -111 -43 -95 -32 -180 33 -255 21 -25 97 -71 188 -116 19 -9 54 -36 78 -58 45 -45 53 -75 26 -112 -12 -18 -25 -22 -69 -22 -44 0 -57 4 -69 22 -9 12 -16 34 -16 48 0 44 -38 70 -101 70 -72 0 -99 -25 -99 -92 0 -97 53 -167 149 -199 54 -18 80 -21 175 -17 128 5 167 20 235 89 108 111 68 288 -83 366 -17 9 -33 19 -36 22 -3 4 -45 27 -94 51 -92 47 -113 70 -102 113 6 26 30 37 82 37 36 0 61 -24 75 -72 7 -28 16 -37 48 -48 45 -15 102 -8 138 15 23 16 25 21 21 82 -3 41 -10 70 -19 77 -7 6 -19 20 -25 31 -5 11 -35 32 -65 48 -56 28 -158 41 -254 31z" fill="#7ac94c"/>
<path d="M5840 3090 c-71 -9 -147 -39 -173 -68 -29 -32 -47 -90 -47 -149 1 -59 6 -74 50 -131 22 -29 144 -109 195 -128 11 -4 41 -28 68 -53 40 -38 47 -51 47 -83 0 -45 -19 -58 -82 -58 -56 0 -74 15 -81 65 -9 55 -36 75 -102 75 -78 0 -100 -21 -99 -97 1 -141 100 -213 293 -213 116 0 187 19 233 60 18 17 36 30 39 30 15 0 49 88 50 130 4 112 -23 162 -126 229 -22 14 -42 28 -45 31 -3 4 -39 22 -80 42 -94 46 -120 68 -120 104 0 34 25 53 70 54 45 0 80 -24 80 -55 0 -28 34 -63 68 -72 13 -3 42 -3 65 0 140 19 102 219 -51 272 -59 20 -167 26 -252 15z" fill="#7ac94c"/>
<path d="M1182 3081 c-41 -11 -112 -57 -112 -74 0 -6 -11 -25 -25 -41 -13 -16 -28 -45 -32 -65 -10 -47 -10 -415 0 -463 7 -32 41 -80 103 -144 31 -33 124 -49 191 -34 52 11 86 41 120 104 9 17 12 14 18 -21 10 -62 43 -87 113 -88 47 0 64 5 89 25 17 14 34 34 38 45 12 34 18 525 7 617 -8 77 -13 90 -38 112 -59 51 -152 45 -191 -13 -13 -19 -23 -46 -23 -60 -1 -23 -4 -20 -23 19 -16 32 -33 51 -62 64 -44 22 -123 29 -173 17z m207 -209 c43 -53 59 -160 43 -285 -13 -102 -35 -129 -101 -125 -66 4 -71 20 -71 211 0 200 13 233 85 220 17 -3 36 -12 44 -21z" fill="#7ac94c"/>
<path d="M2623 3070 c-58 -27 -70 -70 -47 -166 8 -38 19 -71 24 -74 4 -3 17 -32 28 -65 12 -33 39 -112 62 -175 23 -63 46 -130 51 -147 6 -18 13 -33 18 -33 4 0 16 -24 26 -54 18 -53 18 -56 -1 -98 -10 -24 -22 -47 -27 -53 -4 -5 -16 -26 -26 -45 -17 -32 -24 -36 -79 -45 -34 -5 -68 -17 -77 -25 -43 -44 -17 -134 45 -156 48 -17 134 -17 173 0 42 18 117 92 150 148 33 57 103 218 112 258 4 16 11 30 15 30 5 0 16 21 24 48 8 26 34 99 56 162 23 63 47 132 52 153 6 20 14 37 18 37 14 0 60 153 60 198 0 81 -42 122 -124 122 -23 0 -42 -10 -70 -38 -41 -40 -41 -39 -112 -295 -33 -116 -41 -134 -49 -115 -5 13 -12 25 -16 28 -3 3 -18 48 -33 100 -72 255 -88 290 -141 310 -38 14 -64 12 -112 -10z" fill="#7ac94c"/>
<path d="M4926 3075 c-55 -20 -87 -45 -113 -91 -12 -21 -27 -46 -35 -54 -16 -18 -19 -506 -3 -518 6 -4 26 -30 45 -59 59 -89 157 -122 260 -88 43 14 57 25 79 61 14 24 29 44 32 44 3 0 9 -19 15 -42 7 -33 16 -46 38 -57 47 -22 107 -23 145 -4 59 31 62 55 59 418 -3 280 -5 324 -20 351 -28 51 -102 68 -170 39 -33 -13 -39 -21 -63 -90 -7 -19 -8 -18 -19 7 -37 86 -143 121 -250 83z m196 -186 c43 -19 61 -74 66 -192 4 -113 -8 -189 -35 -219 -24 -27 -109 -25 -123 2 -7 14 -10 85 -8 206 3 170 5 187 22 200 24 17 47 18 78 3z" fill="#7ac94c"/>
</g>
</svg>